<svg width="1326" height="179" viewBox="0 0 1326 179" fill="none" xmlns="http://www.w3.org/2000/svg">
<path fill-rule="evenodd" clip-rule="evenodd" d="M266.652 127.566C266.652 127.425 266.618 127.291 266.554 127.168C266.366 126.802 265.924 126.544 265.409 126.544H130.59V101.523C130.59 101.233 130.441 100.956 130.177 100.762C129.916 100.568 129.568 100.475 129.215 100.506L70.7478 105.694C70.117 105.75 69.6387 106.188 69.6387 106.711V109.952H62.2529V99.9129C62.2529 99.3489 61.6959 98.8911 61.0112 98.8911H34.2885V92.162C34.2885 91.5981 33.7316 91.1402 33.0449 91.1402H21.539V61.4862C21.539 61.3458 21.5049 61.2108 21.4414 61.0884C21.2529 60.7218 20.8116 60.4644 20.2963 60.4644C19.9535 60.4644 19.6437 60.579 19.4193 60.7639C19.1939 60.9487 19.0546 61.2038 19.0546 61.4862V91.1402H8.79043V75.5831C8.79043 75.0192 8.23351 74.5613 7.54873 74.5613C6.86205 74.5613 6.30513 75.0192 6.30513 75.5831V91.1402H1.2417C0.555973 91.1402 0 91.5981 0 92.162V177.309C0 177.874 0.555973 178.331 1.2417 178.331H12.6652C12.7609 178.351 12.8603 178.364 12.9626 178.364H33.9371C34.0403 178.364 34.1388 178.351 34.2345 178.331H39.0536C39.1492 178.351 39.2477 178.364 39.3519 178.364H129.348C129.452 178.364 129.55 178.351 129.646 178.331H137.892C137.987 178.351 138.086 178.364 138.189 178.364H265.409C265.924 178.364 266.366 178.106 266.554 177.74C266.618 177.617 266.652 177.484 266.652 177.343C266.652 177.336 266.65 177.331 266.65 177.326C266.65 177.321 266.652 177.315 266.652 177.309V127.566Z" fill="#3B7360"/>
<path fill-rule="evenodd" clip-rule="evenodd" d="M895.947 67.1018C895.947 66.9607 895.912 66.8257 895.849 66.704C895.66 66.3374 895.219 66.0793 894.705 66.0793H825.977V41.0576C825.977 40.7683 825.827 40.4914 825.564 40.2971C825.303 40.1037 824.954 40.0109 824.602 40.0421L766.134 45.2291C765.503 45.2852 765.026 45.7236 765.026 46.2454V49.4879H757.641V39.4485C757.641 38.8846 757.084 38.4267 756.398 38.4267H729.674V31.6976C729.674 31.1337 729.118 30.6758 728.433 30.6758H716.926V1.0218C716.926 0.88062 716.892 0.74646 716.829 0.624C716.641 0.2574 716.198 0 715.684 0C715.34 0 715.03 0.11466 714.805 0.29874C714.581 0.48438 714.442 0.73944 714.442 1.0218V30.6758H704.176V15.1187C704.176 14.5548 703.62 14.0969 702.935 14.0969C702.249 14.0969 701.692 14.5548 701.692 15.1187V30.6758H696.63C695.943 30.6758 695.387 31.1337 695.387 31.6976V109.953H690.927V99.9133C690.927 99.3486 690.37 98.8907 689.685 98.8907H662.961V92.1625C662.961 91.5977 662.406 91.1399 661.719 91.1399H650.213V61.4866C650.213 61.3454 650.179 61.2113 650.115 61.0888C649.927 60.7222 649.485 60.4648 648.97 60.4648C648.627 60.4648 648.317 60.5787 648.092 60.7643C647.867 60.9484 647.729 61.2043 647.729 61.4866V91.1399H637.463V75.5836C637.463 75.0188 636.907 74.5618 636.221 74.5618C635.536 74.5618 634.979 75.0188 634.979 75.5836V91.1399H629.916C629.229 91.1399 628.674 91.5977 628.674 92.1625V177.31C628.674 177.874 629.229 178.331 629.916 178.331H641.339C641.435 178.351 641.533 178.364 641.637 178.364H662.611C662.713 178.364 662.812 178.351 662.908 178.331H667.727C667.823 178.351 667.922 178.364 668.025 178.364H758.021C758.125 178.364 758.223 178.351 758.319 178.331H766.565C766.66 178.351 766.76 178.364 766.863 178.364H894.083C894.598 178.364 895.04 178.107 895.227 177.74C895.291 177.618 895.326 177.484 895.326 177.342C895.326 177.337 895.324 177.331 895.324 177.326C895.324 177.321 895.326 177.315 895.326 177.31V142.484C895.641 142.354 895.834 142.265 895.849 142.235C895.912 142.112 895.947 117.019 895.947 116.878C895.947 116.872 895.945 116.867 895.944 116.861C895.945 116.856 895.947 116.85 895.947 116.845V67.1018Z" fill="#3B7360"/>
<path fill-rule="evenodd" clip-rule="evenodd" d="M567.643 45.9141H562.578V30.3578C562.578 29.7931 562.022 29.3352 561.337 29.3352C560.65 29.3352 560.094 29.7931 560.094 30.3578V45.9141H549.83V16.2601C549.83 15.9785 549.691 15.7227 549.466 15.5378C549.241 15.3529 548.93 15.2383 548.587 15.2383C548.073 15.2383 547.632 15.4957 547.443 15.8623C547.38 15.9847 547.345 16.1189 547.345 16.2601V45.9141H535.839C535.153 45.9141 534.596 46.372 534.596 46.9359V53.665H507.874C507.188 53.665 506.632 54.1228 506.632 54.6868V64.7269H499.246V61.4837C499.246 60.9619 498.768 60.5235 498.137 60.4681L439.671 55.2804C439.317 55.2492 438.969 55.342 438.706 55.5354C438.444 55.7296 438.294 56.0065 438.294 56.2967V81.3183H430.82V46.9359C430.82 46.372 430.264 45.9141 429.577 45.9141H424.514V30.3578C424.514 29.7931 423.957 29.3352 423.272 29.3352C422.586 29.3352 422.03 29.7931 422.03 30.3578V45.9141H411.765V16.2601C411.765 15.9785 411.626 15.7227 411.401 15.5378C411.177 15.3529 410.866 15.2383 410.522 15.2383C410.008 15.2383 409.567 15.4957 409.377 15.8623C409.315 15.9847 409.281 16.1189 409.281 16.2601V45.9141H397.774C397.088 45.9141 396.532 46.372 396.532 46.9359V53.665H369.809C369.123 53.665 368.566 54.1228 368.566 54.6868V64.7269H361.181V61.4837C361.181 60.9619 360.703 60.5235 360.073 60.4681L301.605 55.2804C301.252 55.2492 300.904 55.342 300.642 55.5354C300.379 55.7296 300.229 56.0065 300.229 56.2967V81.3183H273.702C273.187 81.3183 272.745 81.5757 272.558 81.9423C272.495 82.0648 272.46 82.1997 272.46 82.3401V132.084C272.46 132.089 272.462 132.094 272.462 132.099C272.462 132.106 272.46 132.11 272.46 132.117C272.46 132.257 272.495 178.065 272.558 178.187C272.745 178.554 568.885 178.321 568.885 177.756V46.9359C568.885 46.372 568.329 45.9141 567.643 45.9141Z" fill="#3B7360"/>
<path fill-rule="evenodd" clip-rule="evenodd" d="M1324.76 45.9141H1319.69V30.3578C1319.69 29.7931 1319.14 29.3352 1318.45 29.3352C1317.77 29.3352 1317.21 29.7931 1317.21 30.3578V45.9141H1306.94V16.2601C1306.94 15.9785 1306.81 15.7227 1306.58 15.5378C1306.36 15.3529 1306.05 15.2383 1305.7 15.2383C1305.19 15.2383 1304.75 15.4957 1304.56 15.8623C1304.49 15.9847 1304.46 16.1189 1304.46 16.2601V45.9141H1292.95C1292.27 45.9141 1291.71 46.372 1291.71 46.9359V53.665H1264.99C1264.3 53.665 1263.75 54.1228 1263.75 54.6868V64.7269H1256.36V61.4837C1256.36 60.9619 1255.88 60.5235 1255.25 60.4681L1196.79 55.2804C1196.43 55.2492 1196.08 55.342 1195.82 55.5354C1195.56 55.7296 1195.41 56.0065 1195.41 56.2967V81.3183H1187.93V46.9359C1187.93 46.372 1187.38 45.9141 1186.69 45.9141H1181.63V30.3578C1181.63 29.7931 1181.07 29.3352 1180.39 29.3352C1179.7 29.3352 1179.15 29.7931 1179.15 30.3578V45.9141H1168.88V16.2601C1168.88 15.9785 1168.74 15.7227 1168.52 15.5378C1168.29 15.3529 1167.98 15.2383 1167.64 15.2383C1167.12 15.2383 1166.68 15.4957 1166.49 15.8623C1166.43 15.9847 1166.4 16.1189 1166.4 16.2601V45.9141H1154.89C1154.2 45.9141 1153.65 46.372 1153.65 46.9359V53.665H1126.92C1126.24 53.665 1125.68 54.1228 1125.68 54.6868V64.7269H1118.3V61.4837C1118.3 60.9619 1117.82 60.5235 1117.19 60.4681L1058.72 55.2804C1058.37 55.2492 1058.02 55.342 1057.76 55.5354C1057.49 55.7296 1057.34 56.0065 1057.34 56.2967V81.3183H1030.82C1030.3 81.3183 1029.86 81.5757 1029.67 81.9423C1029.61 82.0648 1029.58 82.1997 1029.58 82.3401V132.084C1029.58 132.089 1029.58 132.094 1029.58 132.099C1029.58 132.106 1029.58 132.11 1029.58 132.117C1029.58 132.257 1029.61 178.065 1029.67 178.187C1029.86 178.554 1326 178.321 1326 177.756V46.9359C1326 46.372 1325.44 45.9141 1324.76 45.9141Z" fill="#3B7360"/>
</svg>
