<svg xmlns="http://www.w3.org/2000/svg" width="1920" height="759" viewBox="0 0 1920 759">
  <path id="Path_1" data-name="Path 1" d="M0,135.96S479.812,0,959.25,0,1920,135.96,1920,135.96V759H0Z" fill="#073937" fill-rule="evenodd"/>
  <g id="Group_1" data-name="Group 1" transform="translate(19.915 524.377)" opacity="0.252">
    <path id="Path_2" data-name="Path 2" d="M350.758,148.731a1.125,1.125,0,0,0-.129-.524,1.672,1.672,0,0,0-1.506-.821H171.78V114.473a1.25,1.25,0,0,0-.543-1,1.861,1.861,0,0,0-1.265-.337L93.063,119.96A1.473,1.473,0,0,0,91.6,121.3v4.263H81.888V112.356a1.511,1.511,0,0,0-1.633-1.344H45.1V102.16a1.512,1.512,0,0,0-1.636-1.344H28.333V61.808a1.131,1.131,0,0,0-.128-.523,1.672,1.672,0,0,0-1.506-.821,1.816,1.816,0,0,0-1.154.394,1.231,1.231,0,0,0-.48.95v39.007h-13.5V80.352A1.511,1.511,0,0,0,9.93,79.008a1.512,1.512,0,0,0-1.636,1.344v20.464H1.633A1.51,1.51,0,0,0,0,102.16v112a1.51,1.51,0,0,0,1.633,1.344H16.66a1.909,1.909,0,0,0,.391.043h27.59a1.9,1.9,0,0,0,.391-.043h6.339a1.9,1.9,0,0,0,.393.043H170.146a1.9,1.9,0,0,0,.392-.043h10.847a1.89,1.89,0,0,0,.391.043H349.123a1.673,1.673,0,0,0,1.506-.821,1.12,1.12,0,0,0,.129-.522c0-.009,0-.016,0-.022s0-.014,0-.022Z" transform="translate(0 19.071)" fill="#3b7360" fill-rule="evenodd"/>
    <path id="Path_3" data-name="Path 3" d="M980.249,88.267a1.134,1.134,0,0,0-.129-.523,1.673,1.673,0,0,0-1.5-.822H888.209V54.008a1.255,1.255,0,0,0-.543-1,1.865,1.865,0,0,0-1.266-.335l-76.91,6.823a1.472,1.472,0,0,0-1.458,1.337V65.1h-9.714V51.891a1.512,1.512,0,0,0-1.635-1.344H761.531V41.7a1.51,1.51,0,0,0-1.632-1.344H744.762V1.344a1.134,1.134,0,0,0-.128-.523A1.672,1.672,0,0,0,743.128,0a1.827,1.827,0,0,0-1.156.393,1.238,1.238,0,0,0-.477.951V40.351h-13.5V19.887a1.665,1.665,0,0,0-3.268,0V40.351h-6.659a1.511,1.511,0,0,0-1.635,1.344V144.634h-5.867V131.427a1.512,1.512,0,0,0-1.634-1.345H673.776v-8.85a1.51,1.51,0,0,0-1.634-1.345H657.007V80.88a1.121,1.121,0,0,0-.129-.523,1.671,1.671,0,0,0-1.506-.821,1.815,1.815,0,0,0-1.155.394,1.229,1.229,0,0,0-.477.95v39.006h-13.5V99.424a1.665,1.665,0,0,0-3.268,0v20.463h-6.66a1.51,1.51,0,0,0-1.634,1.345v112a1.509,1.509,0,0,0,1.634,1.343h15.026a1.9,1.9,0,0,0,.392.043h27.59a1.91,1.91,0,0,0,.391-.043h6.339a1.912,1.912,0,0,0,.392.043H798.819a1.9,1.9,0,0,0,.392-.043h10.847a1.9,1.9,0,0,0,.392.043H977.8a1.666,1.666,0,0,0,1.5-.821,1.118,1.118,0,0,0,.13-.524c0-.007,0-.014,0-.021s0-.014,0-.021V187.425a3.188,3.188,0,0,0,.688-.328c.083-.162.129-33.169.129-33.355a.12.12,0,0,0,0-.022.106.106,0,0,0,0-.021Z" transform="translate(279.009)" fill="#3b7360" fill-rule="evenodd"/>
    <path id="Path_4" data-name="Path 4" d="M660.748,55.59h-6.663V35.127a1.665,1.665,0,0,0-3.267,0V55.59h-13.5V16.582a1.234,1.234,0,0,0-.479-.95,1.824,1.824,0,0,0-1.156-.394,1.672,1.672,0,0,0-1.5.821,1.137,1.137,0,0,0-.129.523V55.59H618.912a1.512,1.512,0,0,0-1.635,1.344v8.852H582.127a1.511,1.511,0,0,0-1.634,1.344V80.336h-9.716V76.07a1.472,1.472,0,0,0-1.459-1.336L492.412,67.91a1.876,1.876,0,0,0-1.269.335,1.257,1.257,0,0,0-.542,1v32.914h-9.833V56.934a1.51,1.51,0,0,0-1.634-1.344h-6.66V35.127a1.665,1.665,0,0,0-3.268,0V55.59H455.7V16.582a1.234,1.234,0,0,0-.479-.95,1.819,1.819,0,0,0-1.156-.394,1.676,1.676,0,0,0-1.506.821,1.151,1.151,0,0,0-.126.523V55.59H437.3a1.511,1.511,0,0,0-1.634,1.344v8.852H400.514a1.512,1.512,0,0,0-1.635,1.344V80.336h-9.714V76.07a1.472,1.472,0,0,0-1.457-1.336L310.8,67.91a1.868,1.868,0,0,0-1.267.335,1.255,1.255,0,0,0-.543,1v32.914H274.094a1.667,1.667,0,0,0-1.5.821,1.14,1.14,0,0,0-.129.523v65.434c0,.007,0,.013,0,.02s0,.014,0,.024c0,.184.046,60.441.129,60.6.246.483,389.793.176,389.793-.567V56.934a1.511,1.511,0,0,0-1.634-1.344" transform="translate(121.91 4.806)" fill="#3b7360" fill-rule="evenodd"/>
    <path id="Path_5" data-name="Path 5" d="M1120.238,148.731a1.183,1.183,0,0,0-.118-.524,1.679,1.679,0,0,0-1.513-.821h-21.717V114.473a1.26,1.26,0,0,0-.539-1,1.857,1.857,0,0,0-1.263-.337l-76.914,6.824a1.474,1.474,0,0,0-1.459,1.338v4.263H1007V112.356a1.509,1.509,0,0,0-1.632-1.344H970.215V102.16a1.511,1.511,0,0,0-1.634-1.344H953.445V61.808a1.156,1.156,0,0,0-.128-.523,1.673,1.673,0,0,0-1.506-.821,1.815,1.815,0,0,0-1.155.394,1.229,1.229,0,0,0-.48.95v39.007h-13.5V80.352a1.666,1.666,0,0,0-3.269,0v20.464h-6.661a1.51,1.51,0,0,0-1.633,1.344v112a1.509,1.509,0,0,0,1.633,1.344h15.027a1.909,1.909,0,0,0,.391.043h27.591a1.912,1.912,0,0,0,.391-.043h6.339a1.9,1.9,0,0,0,.392.043h118.383a2.012,2.012,0,0,0,.395-.043h10.839a2.012,2.012,0,0,0,.395.043h11.72a1.679,1.679,0,0,0,1.513-.821,1.177,1.177,0,0,0,.118-.522V148.731Z" transform="translate(398.574 19.071)" fill="#3b7360" fill-rule="evenodd"/>
    <path id="Path_6" data-name="Path 6" d="M1417.864,55.59h-6.669V35.127a1.661,1.661,0,0,0-3.262,0V55.59h-13.509V16.582a1.208,1.208,0,0,0-.474-.95,1.8,1.8,0,0,0-1.158-.394,1.67,1.67,0,0,0-1.5.821,1.035,1.035,0,0,0-.132.523V55.59h-15.14a1.513,1.513,0,0,0-1.631,1.344v8.852h-35.148a1.5,1.5,0,0,0-1.631,1.344V80.336h-9.721V76.07a1.474,1.474,0,0,0-1.46-1.336l-76.9-6.824a1.877,1.877,0,0,0-1.276.335,1.261,1.261,0,0,0-.539,1v32.914h-9.839V56.934a1.5,1.5,0,0,0-1.631-1.344h-6.656V35.127a1.661,1.661,0,0,0-3.262,0V55.59h-13.509V16.582a1.249,1.249,0,0,0-.474-.95,1.85,1.85,0,0,0-1.157-.394,1.678,1.678,0,0,0-1.513.821,1.18,1.18,0,0,0-.118.523V55.59h-15.141a1.5,1.5,0,0,0-1.631,1.344v8.852h-35.161a1.513,1.513,0,0,0-1.631,1.344V80.336h-9.708V76.07a1.474,1.474,0,0,0-1.46-1.336l-76.912-6.824a1.859,1.859,0,0,0-1.263.335,1.24,1.24,0,0,0-.553,1v32.914h-34.885a1.677,1.677,0,0,0-1.513.821,1.181,1.181,0,0,0-.119.523v65.477c0,.184.039,60.441.119,60.6.25.483,389.8.176,389.8-.567V56.934a1.513,1.513,0,0,0-1.631-1.344" transform="translate(460.675 4.806)" fill="#3b7360" fill-rule="evenodd"/>
  </g>
</svg>
