<svg xmlns="http://www.w3.org/2000/svg" width="367.451" height="367.441" viewBox="0 0 367.451 367.441">
  <g id="Group_615" data-name="Group 615" transform="translate(398.666 -332.443)">
    <rect id="Rectangle_2190" data-name="Rectangle 2190" width="367.451" height="367.441" transform="translate(-398.666 332.443)" fill="#82868c"/>
    <path id="Path_13" data-name="Path 13" d="M-395.318,470.373c0-38.379,79.756-69.491,178.141-69.491s178.139,31.112,178.139,69.491-79.756,69.481-178.139,69.481S-395.318,508.742-395.318,470.373Z" transform="translate(2.24 45.792)" fill="#9b9b9b"/>
    <path id="Path_14" data-name="Path 14" d="M-395.318,470.373c0-38.379,79.756-69.491,178.141-69.491s178.139,31.112,178.139,69.491-79.756,69.481-178.139,69.481S-395.318,508.742-395.318,470.373Z" transform="translate(2.24 45.792)" fill="none" stroke="#dfdfde" stroke-miterlimit="3.864" stroke-width="0.316"/>
    <path id="Path_15" data-name="Path 15" d="M-356.2,490.415l18.49-69.015h29.18v40.593h.191l19.8-40.593H-258.9l-18.49,69.015h-19.269l11.854-44.268H-285l-23.538,44.268h-15.429V446.147h-.312l-11.854,44.268Z" transform="translate(28.411 59.521)" fill="#dfdfde" fill-rule="evenodd"/>
    <path id="Path_16" data-name="Path 16" d="M-294.781,467.5l2.622-9.809h21.266l-2.627,9.809Z" transform="translate(69.509 83.803)" fill="#82868c" fill-rule="evenodd"/>
    <path id="Path_17" data-name="Path 17" d="M-289.331,479.219l10.757-40.127h-19.332l4.74-17.691h59.931l-4.74,17.691h-19.333l-10.752,40.116Z" transform="translate(67.418 59.521)" fill="#fff" fill-rule="evenodd"/>
    <path id="Path_18" data-name="Path 18" d="M-267.395,490.415l18.48-69.015h20.884l9.422,36.928h.186l9.89-36.928h19.305l-18.48,69.015h-19.867l-10.233-37.69h-.185l-10.095,37.69Z" transform="translate(87.833 59.521)" fill="#dfdfde" fill-rule="evenodd"/>
  </g>
</svg>
