<?xml version="1.0" encoding="utf-8"?>
<!-- Generator: Adobe Illustrator 16.0.0, SVG Export Plug-In . SVG Version: 6.00 Build 0)  -->
<!DOCTYPE svg PUBLIC "-//W3C//DTD SVG 1.1//EN" "http://www.w3.org/Graphics/SVG/1.1/DTD/svg11.dtd">
<svg version="1.1" id="Layer_1" xmlns="http://www.w3.org/2000/svg" xmlns:xlink="http://www.w3.org/1999/xlink" x="0px" y="0px"
	 width="308.984px" height="94.495px" viewBox="0 0 308.984 94.495" enable-background="new 0 0 308.984 94.495"
	 xml:space="preserve">
<path fill="#FFFFFF" d="M180.224,79.564c-5.454,3.064-11.998,4.555-18.098,4.564c-8.825,0.005-17-3.016-23.443-8.112l3.027,6.606
	l-9.63,0.004l-8.217-18.043l-33.005,0.03l-8.184,18.058L38.2,82.701c-2.186,0.207-4.7,0.314-7.593,0.316
	c-11.638,0.009-21.897-7.352-23.43-18.904l9.059-1.921c-0.092,7.927,6.212,13.614,13.938,13.644
	c9.558,0.041,12.221-3.464,12.963-8.305c0,0,0.669-5.291-0.087-8.532c-1.351-5.773-6.629-8.604-12.042-10.855l-4.962-2.099
	c-8.208-3.524-15.649-8.193-15.658-18.223C10.377,16.173,20.677,9.195,31.548,9.186c2.9-0.005,5.615,0.514,8.084,1.496l4.825-0.002
	l37.748-0.006l0.009,8.204l-29.537,0.024v20.15l28.699-0.021l0.006,8.211l-28.705,0.023l-0.002,27.218l24.112-0.019l30.519-66.873
	l17.343,37.816c0.814-20.518,17.536-36.321,38.176-36.34c6.046-0.003,11.692,1.166,16.986,4.234
	c-2.931,1.463-5.166,3.549-7.598,5.707c-3.045-1.285-6.287-1.727-10.249-1.725c-16.112,0.014-28.403,13.49-28.394,29.434
	c0.014,15.756,12.237,29.213,28.261,29.197c3.966-0.002,7.354-0.544,10.506-1.873C174.788,76.157,177.258,78.16,180.224,79.564
	 M94.493,56.352l25.559-0.021l-12.81-29.116L94.493,56.352z M34.725,40.007c3.157,1.237,6.028,2.514,8.832,4.28V24.185
	c-2.676-4.487-6.562-6.714-11.999-6.707c-5.72,0.003-12.016,3.927-12.01,10.231c0.004,5.627,5.539,8.584,10.028,10.303
	L34.725,40.007z M226.549,46.183c-0.014-15.2-11.367-27.914-27.558-27.901c-16.193,0.014-27.527,12.75-27.514,27.951
	c0.014,15.745,12.648,27.91,27.561,27.895C213.95,74.112,226.562,61.928,226.549,46.183 M222.679,73.607
	c-6.334,5.385-14.596,8.565-23.631,8.574c-19.945,0.017-36.149-15.435-36.171-35.945c-0.015-19.773,16.35-35.992,36.107-36.01
	c13.926-0.01,26.177,8.027,32.203,19.7l4.287-22.014l26.75,56.701l24.648-56.742l14.755,75.042l-9.251,0.013l-8.436-47.551h-0.187
	l-21.518,49.099l-21.597-49.062h-0.192l-8.353,47.567l-11.244,0.004L222.679,73.607z"/>
<path fill="#FFFFFF" d="M216.803,56.969c2.042,0.412-1.122,6.314-1.524,7.204c-1.429,3.103-2.25-0.476-1.529-2.156
	c0.462-1.068-0.812-2.392,0.934-2.702C216.116,59.061,216.134,58.092,216.803,56.969 M195.03,28.108
	c0.422,0.335,3.229,1.87,4.31,1.705c0.147-2.343,2.4-1.366,4.14-0.903c1.118,0.301,1.243-0.036,2.292,0.041
	c0.938,0.074,2.325,3.429,2.828,4.542c0.739,1.597,1.663,4.63,3.064,5.665c0.783,0.586,1.805,3.027,2.611,3.324
	c1.186,0.758,3.324-2.336,4.136-0.897c1.681,3.204-4.063,6.92-5.469,8.733c-2.391,3.072-0.407,3.654-0.824,6.545
	c-0.344,2.373,0.068,2.32-2.145,3.355c-2.537,1.155-0.082,3.338-1.79,4.406c-1.121,0.71-1.177,1.889-2.156,2.971
	c-0.845,1.236-5.578,3.797-6.847,2.049c-0.715-0.982-2.18-4.64-2.478-5.861c-0.349-1.428-1.888-3.134-1.599-4.627
	c0.32-1.652,0.572-2.597,0.71-4.102c0.225-2.5-2.927-3.306-2.258-5.921c0.525-2.071-2.603-1.603-3.636-3.205
	c-1.719-2.913-6.069,0.524-8.629-0.265c-2.316-0.708-2.316-2.51-3.329-3.683c-0.879-1.342-3.092-3.052-1.374-4.359
	c1.029-0.778,0.581-1.758,0.742-2.84c0.271-2.002,1.822-3.964,3.163-4.976c1.402-1.178,4.104-2.153,4.838-3.814
	c0.484-1.103,6.92-0.199,8.436-0.763C195.282,24.664,194.604,27.773,195.03,28.108"/>
</svg>
